<svg xmlns="http://www.w3.org/2000/svg" xmlns:svg="http://www.w3.org/2000/svg" id="svg2" width="500" height="500" version="1.1"><metadata id="metadata43"/><style id="style4" type="text/css">.black{stroke-width:1px;stroke:#000}.fill_transluscent{fill-opacity:.1;fill:#00f}.dashed{stroke-dasharray:3,3}.arrowended{marker-end:url(#arrowhead)}</style><defs id="defs6"><marker id="arrowhead" markerHeight="8" markerUnits="strokeWidth" markerWidth="10" orient="auto" refX="10" refY="4"><path id="path9" d="M 10 4 L 0 0 L 0 8 Z" class="black"/></marker></defs><line id="line11" x1="141.747" x2="33.494" y1="239.147" y2="228.294" class="black arrowended"/><line id="line13" x1="250" x2="250" y1="126.899" y2="3.798" class="black arrowended"/><line id="line15" x1="312.5" x2="437.5" y1="231.202" y2="193.606" class="black arrowended"/><polygon id="polygon17" points="204.247 343.45 204.247 97.248 79.247 134.844 79.247 381.046" class="black fill_transluscent"/><polygon id="polygon19" points="420.753 365.156 204.247 343.45 79.247 381.046 295.753 402.752" class="black fill_transluscent"/><polygon id="polygon21" points="420.753 365.156 204.247 343.45 204.247 97.248 420.753 118.954" class="black fill_transluscent"/><line id="line23" x1="358.253" x2="141.747" y1="260.853" y2="239.147" class="black dashed"/><line id="line25" x1="250" x2="250" y1="373.101" y2="126.899" class="black dashed"/><line id="line27" x1="312.5" x2="187.5" y1="231.202" y2="268.798" class="black dashed"/><polygon id="polygon29" points="420.753 365.156 420.753 118.954 295.753 156.55 295.753 402.752" class="black fill_transluscent"/><polygon id="polygon31" points="420.753 118.954 204.247 97.248 79.247 134.844 295.753 156.55" class="black fill_transluscent"/><polygon id="polygon33" points="295.753 402.752 79.247 381.046 79.247 134.844 295.753 156.55" class="black fill_transluscent"/><line id="line35" x1="358.253" x2="466.506" y1="260.853" y2="271.706" class="black arrowended"/><line id="line37" x1="250" x2="250" y1="373.101" y2="496.202" class="black arrowended"/><line id="line39" x1="187.5" x2="62.5" y1="268.798" y2="306.394" class="black arrowended"/><text style="font-size:24px;font-style:normal;font-variant:normal;font-weight:400;font-stretch:normal;text-align:start;line-height:125%;writing-mode:lr-tb;text-anchor:start;fill:#000;fill-opacity:1;stroke:none;font-family:Arial;-inkscape-font-specification:Arial" id="text2853" x="20.959" y="217.423" xml:space="preserve"><tspan id="tspan2855" x="20.959" y="217.423"><tspan id="tspan2857" x="20.959" y="217.423">-X</tspan></tspan></text><text style="font-size:24px;font-style:normal;font-variant:normal;font-weight:400;font-stretch:normal;text-align:start;line-height:125%;writing-mode:lr-tb;text-anchor:start;fill:#000;fill-opacity:1;stroke:none;font-family:Arial;-inkscape-font-specification:Arial" id="text2871" x="449.438" y="303.591" xml:space="preserve"><tspan id="tspan2873" x="449.438" y="303.591"><tspan id="tspan2875" x="449.438" y="303.591">+X</tspan></tspan></text><text style="font-size:24px;font-style:normal;font-variant:normal;font-weight:400;font-stretch:normal;text-align:start;line-height:125%;writing-mode:lr-tb;text-anchor:start;fill:#000;fill-opacity:1;stroke:none;font-family:Arial;-inkscape-font-specification:Arial" id="text2883" x="440.445" y="188.961" xml:space="preserve"><tspan id="tspan2885" x="440.445" y="188.961"><tspan id="tspan2887" x="440.445" y="188.961">+Z</tspan></tspan></text><text style="font-size:24px;font-style:normal;font-variant:normal;font-weight:400;font-stretch:normal;text-align:start;line-height:125%;writing-mode:lr-tb;text-anchor:start;fill:#000;fill-opacity:1;stroke:none;font-family:Arial;-inkscape-font-specification:Arial" id="text2877" x="259.908" y="31.684" xml:space="preserve"><tspan id="tspan2879" x="259.908" y="31.684"><tspan id="tspan2881" x="259.908" y="31.684">+Y</tspan></tspan></text><text style="font-size:24px;font-style:normal;font-variant:normal;font-weight:400;font-stretch:normal;text-align:start;line-height:125%;writing-mode:lr-tb;text-anchor:start;fill:#000;fill-opacity:1;stroke:none;font-family:Arial;-inkscape-font-specification:Arial" id="text2859" x="37.448" y="330.553" xml:space="preserve"><tspan id="tspan2861" x="37.448" y="330.553"><tspan id="tspan2863" x="37.448" y="330.553">-Z</tspan></tspan></text><text style="font-size:24px;font-style:normal;font-variant:normal;font-weight:400;font-stretch:normal;text-align:start;line-height:125%;writing-mode:lr-tb;text-anchor:start;fill:#000;fill-opacity:1;stroke:none;font-family:Arial;-inkscape-font-specification:Arial" id="text2865" x="266.656" y="489.335" xml:space="preserve"><tspan id="tspan2867" x="266.656" y="489.335"><tspan id="tspan2869" x="266.656" y="489.335">-Y</tspan></tspan></text></svg>