<svg xmlns="http://www.w3.org/2000/svg" xmlns:xlink="http://www.w3.org/1999/xlink" width="312" height="256" version="1.1"><style type="text/css">.color_2{fill:#afafaf}.color_0,.color_1,.color_2{stroke:none}.color_1{fill:gray}.color_0{fill:#000}.color_3,.color_4{stroke:none}.color_4{fill:#d3d3d3}.color_3{fill:#9a9a9a}</style><rect width="1" height="1" x="0" y="0" class="color_4"/><rect width="1" height="1" x="1" y="0" class="color_4"/><rect width="1" height="1" x="2" y="0" class="color_4"/><rect width="1" height="1" x="3" y="0" class="color_4"/><rect width="1" height="1" x="4" y="0" class="color_4"/><rect width="1" height="1" x="5" y="0" class="color_4"/><rect width="1" height="1" x="6" y="0" class="color_4"/><rect width="1" height="1" x="7" y="0" class="color_4"/><rect width="1" height="1" x="8" y="0" class="color_4"/><rect width="1" height="1" x="9" y="0" class="color_4"/><rect width="1" height="1" x="10" y="0" class="color_4"/><rect width="1" height="1" x="11" y="0" class="color_4"/><rect width="1" height="1" x="12" y="0" class="color_4"/><rect width="1" height="1" x="13" y="0" class="color_4"/><rect width="1" height="1" x="14" y="0" class="color_4"/><rect width="1" height="1" x="15" y="0" class="color_4"/><rect width="1" height="1" x="0" y="1" class="color_4"/><rect width="1" height="1" x="1" y="1" class="color_4"/><rect width="1" height="1" x="2" y="1" class="color_4"/><rect width="1" height="1" x="3" y="1" class="color_4"/><rect width="1" height="1" x="4" y="1" class="color_4"/><rect width="1" height="1" x="5" y="1" class="color_4"/><rect width="1" height="1" x="6" y="1" class="color_4"/><rect width="1" height="1" x="7" y="1" class="color_4"/><rect width="1" height="1" x="8" y="1" class="color_4"/><rect width="1" height="1" x="9" y="1" class="color_4"/><rect width="1" height="1" x="10" y="1" class="color_4"/><rect width="1" height="1" x="11" y="1" class="color_4"/><rect width="1" height="1" x="12" y="1" class="color_4"/><rect width="1" height="1" x="13" y="1" class="color_4"/><rect width="1" height="1" x="14" y="1" class="color_4"/><rect width="1" height="1" x="15" y="1" class="color_4"/><rect width="1" height="1" x="0" y="2" class="color_4"/><rect width="1" height="1" x="1" y="2" class="color_4"/><rect width="1" height="1" x="2" y="2" class="color_4"/><rect width="1" height="1" x="3" y="2" class="color_4"/><rect width="1" height="1" x="4" y="2" class="color_4"/><rect width="1" height="1" x="5" y="2" class="color_1"/><rect width="1" height="1" x="6" y="2" class="color_2"/><rect width="1" height="1" x="7" y="2" class="color_4"/><rect width="1" height="1" x="8" y="2" class="color_4"/><rect width="1" height="1" x="9" y="2" class="color_4"/><rect width="1" height="1" x="10" y="2" class="color_4"/><rect width="1" height="1" x="11" y="2" class="color_4"/><rect width="1" height="1" x="12" y="2" class="color_4"/><rect width="1" height="1" x="13" y="2" class="color_4"/><rect width="1" height="1" x="14" y="2" class="color_4"/><rect width="1" height="1" x="15" y="2" class="color_4"/><rect width="1" height="1" x="0" y="3" class="color_4"/><rect width="1" height="1" x="1" y="3" class="color_4"/><rect width="1" height="1" x="2" y="3" class="color_4"/><rect width="1" height="1" x="3" y="3" class="color_4"/><rect width="1" height="1" x="4" y="3" class="color_1"/><rect width="1" height="1" x="5" y="3" class="color_2"/><rect width="1" height="1" x="6" y="3" class="color_4"/><rect width="1" height="1" x="7" y="3" class="color_4"/><rect width="1" height="1" x="8" y="3" class="color_4"/><rect width="1" height="1" x="9" y="3" class="color_4"/><rect width="1" height="1" x="10" y="3" class="color_4"/><rect width="1" height="1" x="11" y="3" class="color_4"/><rect width="1" height="1" x="12" y="3" class="color_4"/><rect width="1" height="1" x="13" y="3" class="color_4"/><rect width="1" height="1" x="14" y="3" class="color_4"/><rect width="1" height="1" x="15" y="3" class="color_4"/><rect width="1" height="1" x="0" y="4" class="color_4"/><rect width="1" height="1" x="1" y="4" class="color_4"/><rect width="1" height="1" x="2" y="4" class="color_4"/><rect width="1" height="1" x="3" y="4" class="color_1"/><rect width="1" height="1" x="4" y="4" class="color_2"/><rect width="1" height="1" x="5" y="4" class="color_4"/><rect width="1" height="1" x="6" y="4" class="color_4"/><rect width="1" height="1" x="7" y="4" class="color_4"/><rect width="1" height="1" x="8" y="4" class="color_4"/><rect width="1" height="1" x="9" y="4" class="color_4"/><rect width="1" height="1" x="10" y="4" class="color_4"/><rect width="1" height="1" x="11" y="4" class="color_4"/><rect width="1" height="1" x="12" y="4" class="color_4"/><rect width="1" height="1" x="13" y="4" class="color_4"/><rect width="1" height="1" x="14" y="4" class="color_4"/><rect width="1" height="1" x="15" y="4" class="color_4"/><rect width="1" height="1" x="0" y="5" class="color_4"/><rect width="1" height="1" x="1" y="5" class="color_4"/><rect width="1" height="1" x="2" y="5" class="color_1"/><rect width="1" height="1" x="3" y="5" class="color_2"/><rect width="1" height="1" x="4" y="5" class="color_4"/><rect width="1" height="1" x="5" y="5" class="color_4"/><rect width="1" height="1" x="6" y="5" class="color_4"/><rect width="1" height="1" x="7" y="5" class="color_4"/><rect width="1" height="1" x="8" y="5" class="color_4"/><rect width="1" height="1" x="9" y="5" class="color_4"/><rect width="1" height="1" x="10" y="5" class="color_4"/><rect width="1" height="1" x="11" y="5" class="color_4"/><rect width="1" height="1" x="12" y="5" class="color_4"/><rect width="1" height="1" x="13" y="5" class="color_4"/><rect width="1" height="1" x="14" y="5" class="color_4"/><rect width="1" height="1" x="15" y="5" class="color_4"/><rect width="1" height="1" x="0" y="6" class="color_4"/><rect width="1" height="1" x="1" y="6" class="color_1"/><rect width="1" height="1" x="2" y="6" class="color_0"/><rect width="1" height="1" x="3" y="6" class="color_0"/><rect width="1" height="1" x="4" y="6" class="color_0"/><rect width="1" height="1" x="5" y="6" class="color_0"/><rect width="1" height="1" x="6" y="6" class="color_0"/><rect width="1" height="1" x="7" y="6" class="color_0"/><rect width="1" height="1" x="8" y="6" class="color_1"/><rect width="1" height="1" x="9" y="6" class="color_3"/><rect width="1" height="1" x="10" y="6" class="color_3"/><rect width="1" height="1" x="11" y="6" class="color_2"/><rect width="1" height="1" x="12" y="6" class="color_4"/><rect width="1" height="1" x="13" y="6" class="color_4"/><rect width="1" height="1" x="14" y="6" class="color_4"/><rect width="1" height="1" x="15" y="6" class="color_4"/><rect width="1" height="1" x="0" y="7" class="color_2"/><rect width="1" height="1" x="1" y="7" class="color_0"/><rect width="1" height="1" x="2" y="7" class="color_0"/><rect width="1" height="1" x="3" y="7" class="color_0"/><rect width="1" height="1" x="4" y="7" class="color_0"/><rect width="1" height="1" x="5" y="7" class="color_0"/><rect width="1" height="1" x="6" y="7" class="color_0"/><rect width="1" height="1" x="7" y="7" class="color_0"/><rect width="1" height="1" x="8" y="7" class="color_0"/><rect width="1" height="1" x="9" y="7" class="color_0"/><rect width="1" height="1" x="10" y="7" class="color_0"/><rect width="1" height="1" x="11" y="7" class="color_0"/><rect width="1" height="1" x="12" y="7" class="color_1"/><rect width="1" height="1" x="13" y="7" class="color_3"/><rect width="1" height="1" x="14" y="7" class="color_2"/><rect width="1" height="1" x="15" y="7" class="color_4"/><rect width="1" height="1" x="0" y="8" class="color_2"/><rect width="1" height="1" x="1" y="8" class="color_0"/><rect width="1" height="1" x="2" y="8" class="color_0"/><rect width="1" height="1" x="3" y="8" class="color_0"/><rect width="1" height="1" x="4" y="8" class="color_0"/><rect width="1" height="1" x="5" y="8" class="color_0"/><rect width="1" height="1" x="6" y="8" class="color_0"/><rect width="1" height="1" x="7" y="8" class="color_0"/><rect width="1" height="1" x="8" y="8" class="color_0"/><rect width="1" height="1" x="9" y="8" class="color_0"/><rect width="1" height="1" x="10" y="8" class="color_0"/><rect width="1" height="1" x="11" y="8" class="color_0"/><rect width="1" height="1" x="12" y="8" class="color_1"/><rect width="1" height="1" x="13" y="8" class="color_3"/><rect width="1" height="1" x="14" y="8" class="color_2"/><rect width="1" height="1" x="15" y="8" class="color_4"/><rect width="1" height="1" x="0" y="9" class="color_4"/><rect width="1" height="1" x="1" y="9" class="color_1"/><rect width="1" height="1" x="2" y="9" class="color_0"/><rect width="1" height="1" x="3" y="9" class="color_0"/><rect width="1" height="1" x="4" y="9" class="color_0"/><rect width="1" height="1" x="5" y="9" class="color_0"/><rect width="1" height="1" x="6" y="9" class="color_0"/><rect width="1" height="1" x="7" y="9" class="color_0"/><rect width="1" height="1" x="8" y="9" class="color_1"/><rect width="1" height="1" x="9" y="9" class="color_3"/><rect width="1" height="1" x="10" y="9" class="color_3"/><rect width="1" height="1" x="11" y="9" class="color_2"/><rect width="1" height="1" x="12" y="9" class="color_4"/><rect width="1" height="1" x="13" y="9" class="color_4"/><rect width="1" height="1" x="14" y="9" class="color_4"/><rect width="1" height="1" x="15" y="9" class="color_4"/><rect width="1" height="1" x="0" y="10" class="color_4"/><rect width="1" height="1" x="1" y="10" class="color_4"/><rect width="1" height="1" x="2" y="10" class="color_1"/><rect width="1" height="1" x="3" y="10" class="color_2"/><rect width="1" height="1" x="4" y="10" class="color_4"/><rect width="1" height="1" x="5" y="10" class="color_4"/><rect width="1" height="1" x="6" y="10" class="color_4"/><rect width="1" height="1" x="7" y="10" class="color_4"/><rect width="1" height="1" x="8" y="10" class="color_4"/><rect width="1" height="1" x="9" y="10" class="color_4"/><rect width="1" height="1" x="10" y="10" class="color_4"/><rect width="1" height="1" x="11" y="10" class="color_4"/><rect width="1" height="1" x="12" y="10" class="color_4"/><rect width="1" height="1" x="13" y="10" class="color_4"/><rect width="1" height="1" x="14" y="10" class="color_4"/><rect width="1" height="1" x="15" y="10" class="color_4"/><rect width="1" height="1" x="0" y="11" class="color_4"/><rect width="1" height="1" x="1" y="11" class="color_4"/><rect width="1" height="1" x="2" y="11" class="color_4"/><rect width="1" height="1" x="3" y="11" class="color_1"/><rect width="1" height="1" x="4" y="11" class="color_2"/><rect width="1" height="1" x="5" y="11" class="color_4"/><rect width="1" height="1" x="6" y="11" class="color_4"/><rect width="1" height="1" x="7" y="11" class="color_4"/><rect width="1" height="1" x="8" y="11" class="color_4"/><rect width="1" height="1" x="9" y="11" class="color_4"/><rect width="1" height="1" x="10" y="11" class="color_4"/><rect width="1" height="1" x="11" y="11" class="color_4"/><rect width="1" height="1" x="12" y="11" class="color_4"/><rect width="1" height="1" x="13" y="11" class="color_4"/><rect width="1" height="1" x="14" y="11" class="color_4"/><rect width="1" height="1" x="15" y="11" class="color_4"/><rect width="1" height="1" x="0" y="12" class="color_4"/><rect width="1" height="1" x="1" y="12" class="color_4"/><rect width="1" height="1" x="2" y="12" class="color_4"/><rect width="1" height="1" x="3" y="12" class="color_4"/><rect width="1" height="1" x="4" y="12" class="color_1"/><rect width="1" height="1" x="5" y="12" class="color_2"/><rect width="1" height="1" x="6" y="12" class="color_4"/><rect width="1" height="1" x="7" y="12" class="color_4"/><rect width="1" height="1" x="8" y="12" class="color_4"/><rect width="1" height="1" x="9" y="12" class="color_4"/><rect width="1" height="1" x="10" y="12" class="color_4"/><rect width="1" height="1" x="11" y="12" class="color_4"/><rect width="1" height="1" x="12" y="12" class="color_4"/><rect width="1" height="1" x="13" y="12" class="color_4"/><rect width="1" height="1" x="14" y="12" class="color_4"/><rect width="1" height="1" x="15" y="12" class="color_4"/><rect width="1" height="1" x="0" y="13" class="color_4"/><rect width="1" height="1" x="1" y="13" class="color_4"/><rect width="1" height="1" x="2" y="13" class="color_4"/><rect width="1" height="1" x="3" y="13" class="color_4"/><rect width="1" height="1" x="4" y="13" class="color_4"/><rect width="1" height="1" x="5" y="13" class="color_1"/><rect width="1" height="1" x="6" y="13" class="color_2"/><rect width="1" height="1" x="7" y="13" class="color_4"/><rect width="1" height="1" x="8" y="13" class="color_4"/><rect width="1" height="1" x="9" y="13" class="color_4"/><rect width="1" height="1" x="10" y="13" class="color_4"/><rect width="1" height="1" x="11" y="13" class="color_4"/><rect width="1" height="1" x="12" y="13" class="color_4"/><rect width="1" height="1" x="13" y="13" class="color_4"/><rect width="1" height="1" x="14" y="13" class="color_4"/><rect width="1" height="1" x="15" y="13" class="color_4"/><rect width="1" height="1" x="0" y="14" class="color_4"/><rect width="1" height="1" x="1" y="14" class="color_4"/><rect width="1" height="1" x="2" y="14" class="color_4"/><rect width="1" height="1" x="3" y="14" class="color_4"/><rect width="1" height="1" x="4" y="14" class="color_4"/><rect width="1" height="1" x="5" y="14" class="color_4"/><rect width="1" height="1" x="6" y="14" class="color_4"/><rect width="1" height="1" x="7" y="14" class="color_4"/><rect width="1" height="1" x="8" y="14" class="color_4"/><rect width="1" height="1" x="9" y="14" class="color_4"/><rect width="1" height="1" x="10" y="14" class="color_4"/><rect width="1" height="1" x="11" y="14" class="color_4"/><rect width="1" height="1" x="12" y="14" class="color_4"/><rect width="1" height="1" x="13" y="14" class="color_4"/><rect width="1" height="1" x="14" y="14" class="color_4"/><rect width="1" height="1" x="15" y="14" class="color_4"/><rect width="1" height="1" x="0" y="15" class="color_4"/><rect width="1" height="1" x="1" y="15" class="color_4"/><rect width="1" height="1" x="2" y="15" class="color_4"/><rect width="1" height="1" x="3" y="15" class="color_4"/><rect width="1" height="1" x="4" y="15" class="color_4"/><rect width="1" height="1" x="5" y="15" class="color_4"/><rect width="1" height="1" x="6" y="15" class="color_4"/><rect width="1" height="1" x="7" y="15" class="color_4"/><rect width="1" height="1" x="8" y="15" class="color_4"/><rect width="1" height="1" x="9" y="15" class="color_4"/><rect width="1" height="1" x="10" y="15" class="color_4"/><rect width="1" height="1" x="11" y="15" class="color_4"/><rect width="1" height="1" x="12" y="15" class="color_4"/><rect width="1" height="1" x="13" y="15" class="color_4"/><rect width="1" height="1" x="14" y="15" class="color_4"/><rect width="1" height="1" x="15" y="15" class="color_4"/><rect width="16" height="16" x="56" y="0" class="color_4"/><rect width="16" height="16" x="72" y="0" class="color_4"/><rect width="16" height="16" x="88" y="0" class="color_4"/><rect width="16" height="16" x="104" y="0" class="color_4"/><rect width="16" height="16" x="120" y="0" class="color_4"/><rect width="16" height="16" x="136" y="0" class="color_4"/><rect width="16" height="16" x="152" y="0" class="color_4"/><rect width="16" height="16" x="168" y="0" class="color_4"/><rect width="16" height="16" x="184" y="0" class="color_4"/><rect width="16" height="16" x="200" y="0" class="color_4"/><rect width="16" height="16" x="216" y="0" class="color_4"/><rect width="16" height="16" x="232" y="0" class="color_4"/><rect width="16" height="16" x="248" y="0" class="color_4"/><rect width="16" height="16" x="264" y="0" class="color_4"/><rect width="16" height="16" x="280" y="0" class="color_4"/><rect width="16" height="16" x="296" y="0" class="color_4"/><rect width="16" height="16" x="56" y="16" class="color_4"/><rect width="16" height="16" x="72" y="16" class="color_4"/><rect width="16" height="16" x="88" y="16" class="color_4"/><rect width="16" height="16" x="104" y="16" class="color_4"/><rect width="16" height="16" x="120" y="16" class="color_4"/><rect width="16" height="16" x="136" y="16" class="color_4"/><rect width="16" height="16" x="152" y="16" class="color_4"/><rect width="16" height="16" x="168" y="16" class="color_4"/><rect width="16" height="16" x="184" y="16" class="color_4"/><rect width="16" height="16" x="200" y="16" class="color_4"/><rect width="16" height="16" x="216" y="16" class="color_4"/><rect width="16" height="16" x="232" y="16" class="color_4"/><rect width="16" height="16" x="248" y="16" class="color_4"/><rect width="16" height="16" x="264" y="16" class="color_4"/><rect width="16" height="16" x="280" y="16" class="color_4"/><rect width="16" height="16" x="296" y="16" class="color_4"/><rect width="16" height="16" x="56" y="32" class="color_4"/><rect width="16" height="16" x="72" y="32" class="color_4"/><rect width="16" height="16" x="88" y="32" class="color_4"/><rect width="16" height="16" x="104" y="32" class="color_4"/><rect width="16" height="16" x="120" y="32" class="color_4"/><rect width="16" height="16" x="136" y="32" class="color_1"/><rect width="16" height="16" x="152" y="32" class="color_2"/><rect width="16" height="16" x="168" y="32" class="color_4"/><rect width="16" height="16" x="184" y="32" class="color_4"/><rect width="16" height="16" x="200" y="32" class="color_4"/><rect width="16" height="16" x="216" y="32" class="color_4"/><rect width="16" height="16" x="232" y="32" class="color_4"/><rect width="16" height="16" x="248" y="32" class="color_4"/><rect width="16" height="16" x="264" y="32" class="color_4"/><rect width="16" height="16" x="280" y="32" class="color_4"/><rect width="16" height="16" x="296" y="32" class="color_4"/><rect width="16" height="16" x="56" y="48" class="color_4"/><rect width="16" height="16" x="72" y="48" class="color_4"/><rect width="16" height="16" x="88" y="48" class="color_4"/><rect width="16" height="16" x="104" y="48" class="color_4"/><rect width="16" height="16" x="120" y="48" class="color_1"/><rect width="16" height="16" x="136" y="48" class="color_2"/><rect width="16" height="16" x="152" y="48" class="color_4"/><rect width="16" height="16" x="168" y="48" class="color_4"/><rect width="16" height="16" x="184" y="48" class="color_4"/><rect width="16" height="16" x="200" y="48" class="color_4"/><rect width="16" height="16" x="216" y="48" class="color_4"/><rect width="16" height="16" x="232" y="48" class="color_4"/><rect width="16" height="16" x="248" y="48" class="color_4"/><rect width="16" height="16" x="264" y="48" class="color_4"/><rect width="16" height="16" x="280" y="48" class="color_4"/><rect width="16" height="16" x="296" y="48" class="color_4"/><rect width="16" height="16" x="56" y="64" class="color_4"/><rect width="16" height="16" x="72" y="64" class="color_4"/><rect width="16" height="16" x="88" y="64" class="color_4"/><rect width="16" height="16" x="104" y="64" class="color_1"/><rect width="16" height="16" x="120" y="64" class="color_2"/><rect width="16" height="16" x="136" y="64" class="color_4"/><rect width="16" height="16" x="152" y="64" class="color_4"/><rect width="16" height="16" x="168" y="64" class="color_4"/><rect width="16" height="16" x="184" y="64" class="color_4"/><rect width="16" height="16" x="200" y="64" class="color_4"/><rect width="16" height="16" x="216" y="64" class="color_4"/><rect width="16" height="16" x="232" y="64" class="color_4"/><rect width="16" height="16" x="248" y="64" class="color_4"/><rect width="16" height="16" x="264" y="64" class="color_4"/><rect width="16" height="16" x="280" y="64" class="color_4"/><rect width="16" height="16" x="296" y="64" class="color_4"/><rect width="16" height="16" x="56" y="80" class="color_4"/><rect width="16" height="16" x="72" y="80" class="color_4"/><rect width="16" height="16" x="88" y="80" class="color_1"/><rect width="16" height="16" x="104" y="80" class="color_2"/><rect width="16" height="16" x="120" y="80" class="color_4"/><rect width="16" height="16" x="136" y="80" class="color_4"/><rect width="16" height="16" x="152" y="80" class="color_4"/><rect width="16" height="16" x="168" y="80" class="color_4"/><rect width="16" height="16" x="184" y="80" class="color_4"/><rect width="16" height="16" x="200" y="80" class="color_4"/><rect width="16" height="16" x="216" y="80" class="color_4"/><rect width="16" height="16" x="232" y="80" class="color_4"/><rect width="16" height="16" x="248" y="80" class="color_4"/><rect width="16" height="16" x="264" y="80" class="color_4"/><rect width="16" height="16" x="280" y="80" class="color_4"/><rect width="16" height="16" x="296" y="80" class="color_4"/><rect width="16" height="16" x="56" y="96" class="color_4"/><rect width="16" height="16" x="72" y="96" class="color_1"/><rect width="16" height="16" x="88" y="96" class="color_0"/><rect width="16" height="16" x="104" y="96" class="color_0"/><rect width="16" height="16" x="120" y="96" class="color_0"/><rect width="16" height="16" x="136" y="96" class="color_0"/><rect width="16" height="16" x="152" y="96" class="color_0"/><rect width="16" height="16" x="168" y="96" class="color_0"/><rect width="16" height="16" x="184" y="96" class="color_1"/><rect width="16" height="16" x="200" y="96" class="color_3"/><rect width="16" height="16" x="216" y="96" class="color_3"/><rect width="16" height="16" x="232" y="96" class="color_2"/><rect width="16" height="16" x="248" y="96" class="color_4"/><rect width="16" height="16" x="264" y="96" class="color_4"/><rect width="16" height="16" x="280" y="96" class="color_4"/><rect width="16" height="16" x="296" y="96" class="color_4"/><rect width="16" height="16" x="56" y="112" class="color_2"/><rect width="16" height="16" x="72" y="112" class="color_0"/><rect width="16" height="16" x="88" y="112" class="color_0"/><rect width="16" height="16" x="104" y="112" class="color_0"/><rect width="16" height="16" x="120" y="112" class="color_0"/><rect width="16" height="16" x="136" y="112" class="color_0"/><rect width="16" height="16" x="152" y="112" class="color_0"/><rect width="16" height="16" x="168" y="112" class="color_0"/><rect width="16" height="16" x="184" y="112" class="color_0"/><rect width="16" height="16" x="200" y="112" class="color_0"/><rect width="16" height="16" x="216" y="112" class="color_0"/><rect width="16" height="16" x="232" y="112" class="color_0"/><rect width="16" height="16" x="248" y="112" class="color_1"/><rect width="16" height="16" x="264" y="112" class="color_3"/><rect width="16" height="16" x="280" y="112" class="color_2"/><rect width="16" height="16" x="296" y="112" class="color_4"/><rect width="16" height="16" x="56" y="128" class="color_2"/><rect width="16" height="16" x="72" y="128" class="color_0"/><rect width="16" height="16" x="88" y="128" class="color_0"/><rect width="16" height="16" x="104" y="128" class="color_0"/><rect width="16" height="16" x="120" y="128" class="color_0"/><rect width="16" height="16" x="136" y="128" class="color_0"/><rect width="16" height="16" x="152" y="128" class="color_0"/><rect width="16" height="16" x="168" y="128" class="color_0"/><rect width="16" height="16" x="184" y="128" class="color_0"/><rect width="16" height="16" x="200" y="128" class="color_0"/><rect width="16" height="16" x="216" y="128" class="color_0"/><rect width="16" height="16" x="232" y="128" class="color_0"/><rect width="16" height="16" x="248" y="128" class="color_1"/><rect width="16" height="16" x="264" y="128" class="color_3"/><rect width="16" height="16" x="280" y="128" class="color_2"/><rect width="16" height="16" x="296" y="128" class="color_4"/><rect width="16" height="16" x="56" y="144" class="color_4"/><rect width="16" height="16" x="72" y="144" class="color_1"/><rect width="16" height="16" x="88" y="144" class="color_0"/><rect width="16" height="16" x="104" y="144" class="color_0"/><rect width="16" height="16" x="120" y="144" class="color_0"/><rect width="16" height="16" x="136" y="144" class="color_0"/><rect width="16" height="16" x="152" y="144" class="color_0"/><rect width="16" height="16" x="168" y="144" class="color_0"/><rect width="16" height="16" x="184" y="144" class="color_1"/><rect width="16" height="16" x="200" y="144" class="color_3"/><rect width="16" height="16" x="216" y="144" class="color_3"/><rect width="16" height="16" x="232" y="144" class="color_2"/><rect width="16" height="16" x="248" y="144" class="color_4"/><rect width="16" height="16" x="264" y="144" class="color_4"/><rect width="16" height="16" x="280" y="144" class="color_4"/><rect width="16" height="16" x="296" y="144" class="color_4"/><rect width="16" height="16" x="56" y="160" class="color_4"/><rect width="16" height="16" x="72" y="160" class="color_4"/><rect width="16" height="16" x="88" y="160" class="color_1"/><rect width="16" height="16" x="104" y="160" class="color_2"/><rect width="16" height="16" x="120" y="160" class="color_4"/><rect width="16" height="16" x="136" y="160" class="color_4"/><rect width="16" height="16" x="152" y="160" class="color_4"/><rect width="16" height="16" x="168" y="160" class="color_4"/><rect width="16" height="16" x="184" y="160" class="color_4"/><rect width="16" height="16" x="200" y="160" class="color_4"/><rect width="16" height="16" x="216" y="160" class="color_4"/><rect width="16" height="16" x="232" y="160" class="color_4"/><rect width="16" height="16" x="248" y="160" class="color_4"/><rect width="16" height="16" x="264" y="160" class="color_4"/><rect width="16" height="16" x="280" y="160" class="color_4"/><rect width="16" height="16" x="296" y="160" class="color_4"/><rect width="16" height="16" x="56" y="176" class="color_4"/><rect width="16" height="16" x="72" y="176" class="color_4"/><rect width="16" height="16" x="88" y="176" class="color_4"/><rect width="16" height="16" x="104" y="176" class="color_1"/><rect width="16" height="16" x="120" y="176" class="color_2"/><rect width="16" height="16" x="136" y="176" class="color_4"/><rect width="16" height="16" x="152" y="176" class="color_4"/><rect width="16" height="16" x="168" y="176" class="color_4"/><rect width="16" height="16" x="184" y="176" class="color_4"/><rect width="16" height="16" x="200" y="176" class="color_4"/><rect width="16" height="16" x="216" y="176" class="color_4"/><rect width="16" height="16" x="232" y="176" class="color_4"/><rect width="16" height="16" x="248" y="176" class="color_4"/><rect width="16" height="16" x="264" y="176" class="color_4"/><rect width="16" height="16" x="280" y="176" class="color_4"/><rect width="16" height="16" x="296" y="176" class="color_4"/><rect width="16" height="16" x="56" y="192" class="color_4"/><rect width="16" height="16" x="72" y="192" class="color_4"/><rect width="16" height="16" x="88" y="192" class="color_4"/><rect width="16" height="16" x="104" y="192" class="color_4"/><rect width="16" height="16" x="120" y="192" class="color_1"/><rect width="16" height="16" x="136" y="192" class="color_2"/><rect width="16" height="16" x="152" y="192" class="color_4"/><rect width="16" height="16" x="168" y="192" class="color_4"/><rect width="16" height="16" x="184" y="192" class="color_4"/><rect width="16" height="16" x="200" y="192" class="color_4"/><rect width="16" height="16" x="216" y="192" class="color_4"/><rect width="16" height="16" x="232" y="192" class="color_4"/><rect width="16" height="16" x="248" y="192" class="color_4"/><rect width="16" height="16" x="264" y="192" class="color_4"/><rect width="16" height="16" x="280" y="192" class="color_4"/><rect width="16" height="16" x="296" y="192" class="color_4"/><rect width="16" height="16" x="56" y="208" class="color_4"/><rect width="16" height="16" x="72" y="208" class="color_4"/><rect width="16" height="16" x="88" y="208" class="color_4"/><rect width="16" height="16" x="104" y="208" class="color_4"/><rect width="16" height="16" x="120" y="208" class="color_4"/><rect width="16" height="16" x="136" y="208" class="color_1"/><rect width="16" height="16" x="152" y="208" class="color_2"/><rect width="16" height="16" x="168" y="208" class="color_4"/><rect width="16" height="16" x="184" y="208" class="color_4"/><rect width="16" height="16" x="200" y="208" class="color_4"/><rect width="16" height="16" x="216" y="208" class="color_4"/><rect width="16" height="16" x="232" y="208" class="color_4"/><rect width="16" height="16" x="248" y="208" class="color_4"/><rect width="16" height="16" x="264" y="208" class="color_4"/><rect width="16" height="16" x="280" y="208" class="color_4"/><rect width="16" height="16" x="296" y="208" class="color_4"/><rect width="16" height="16" x="56" y="224" class="color_4"/><rect width="16" height="16" x="72" y="224" class="color_4"/><rect width="16" height="16" x="88" y="224" class="color_4"/><rect width="16" height="16" x="104" y="224" class="color_4"/><rect width="16" height="16" x="120" y="224" class="color_4"/><rect width="16" height="16" x="136" y="224" class="color_4"/><rect width="16" height="16" x="152" y="224" class="color_4"/><rect width="16" height="16" x="168" y="224" class="color_4"/><rect width="16" height="16" x="184" y="224" class="color_4"/><rect width="16" height="16" x="200" y="224" class="color_4"/><rect width="16" height="16" x="216" y="224" class="color_4"/><rect width="16" height="16" x="232" y="224" class="color_4"/><rect width="16" height="16" x="248" y="224" class="color_4"/><rect width="16" height="16" x="264" y="224" class="color_4"/><rect width="16" height="16" x="280" y="224" class="color_4"/><rect width="16" height="16" x="296" y="224" class="color_4"/><rect width="16" height="16" x="56" y="240" class="color_4"/><rect width="16" height="16" x="72" y="240" class="color_4"/><rect width="16" height="16" x="88" y="240" class="color_4"/><rect width="16" height="16" x="104" y="240" class="color_4"/><rect width="16" height="16" x="120" y="240" class="color_4"/><rect width="16" height="16" x="136" y="240" class="color_4"/><rect width="16" height="16" x="152" y="240" class="color_4"/><rect width="16" height="16" x="168" y="240" class="color_4"/><rect width="16" height="16" x="184" y="240" class="color_4"/><rect width="16" height="16" x="200" y="240" class="color_4"/><rect width="16" height="16" x="216" y="240" class="color_4"/><rect width="16" height="16" x="232" y="240" class="color_4"/><rect width="16" height="16" x="248" y="240" class="color_4"/><rect width="16" height="16" x="264" y="240" class="color_4"/><rect width="16" height="16" x="280" y="240" class="color_4"/><rect width="16" height="16" x="296" y="240" class="color_4"/></svg>