<svg xmlns="http://www.w3.org/2000/svg" xmlns:svg="http://www.w3.org/2000/svg" xmlns:xlink="http://www.w3.org/1999/xlink" id="svg2" width="700" height="375" stroke-miterlimit="10" version="1.1" style="fill:none;stroke:none"><metadata id="metadata36"/><g id="layer1"><path id="path4" d="m 23,76.87021 0,0 c 0,-7.98065 6.4696,-14.45026 14.45026,-14.45026 l 170.56406,0 c 3.8324,0 7.50787,1.52243 10.2178,4.23238 2.71,2.70996 4.23245,6.38544 4.23245,10.21788 l 0,52.98923 c 0,7.98068 -6.46961,14.45028 -14.45025,14.45028 l -170.56406,0 C 29.4696,144.30972 23,137.84012 23,129.85944 z" style="fill:#efecfd;fill-opacity:1;stroke:#000;stroke-width:1;stroke-linecap:butt;stroke-linejoin:round;stroke-miterlimit:10;stroke-dasharray:none"/><path id="path4-4" d="m 23,176.50538 0,0 c 0,-7.98066 6.46961,-14.45027 14.45027,-14.45027 l 170.56405,0 c 3.83241,0 7.50787,1.52243 10.21781,4.23238 2.70999,2.70996 4.23245,6.38544 4.23245,10.21789 l 0,52.98922 c 0,7.98069 -6.46961,14.45028 -14.45026,14.45028 l -170.56405,0 C 29.46961,243.94488 23,237.47528 23,229.4946 z" style="fill:#efecfd;fill-opacity:1;stroke:#000;stroke-width:1;stroke-linecap:butt;stroke-linejoin:round;stroke-miterlimit:10;stroke-dasharray:none"/><path id="path4-2" d="m 23,272.50538 0,0 c 0,-7.98066 6.46961,-14.45027 14.45027,-14.45027 l 170.56405,0 c 3.83241,0 7.50787,1.52243 10.21781,4.23238 2.70999,2.70996 4.23245,6.38544 4.23245,10.21789 l 0,52.98922 c 0,7.98068 -6.46961,14.45028 -14.45026,14.45028 l -170.56406,0 C 29.46961,339.94488 23,333.47528 23,325.4946 z" style="fill:#efecfd;fill-opacity:1;stroke:#000;stroke-width:1;stroke-linecap:butt;stroke-linejoin:round;stroke-miterlimit:10;stroke-dasharray:none"/><rect style="fill:#d3f3a2;fill-opacity:1;stroke:none" id="rect3858" width="132" height="207" x="277" y="28"/><rect style="fill:#efdefb;fill-opacity:1;stroke:none" id="rect3860" width="105" height="226" x="425" y="9"/><rect style="fill:#d3f7ef;fill-opacity:1;stroke:none" id="rect3864" width="145" height="202" x="544" y="33"/></g><g id="layer2"><text style="font-size:20px;font-style:normal;font-variant:normal;font-weight:400;font-stretch:normal;text-align:center;line-height:125%;writing-mode:lr-tb;text-anchor:middle;fill:#000;fill-opacity:1;stroke:none;font-family:Serif;-inkscape-font-specification:Serif" id="text4066" x="119" y="56" xml:space="preserve"><tspan id="tspan4068" x="119" y="56"><tspan id="tspan4070" x="119" y="56" style="font-size:20px;font-style:normal;font-variant:normal;font-weight:400;font-stretch:normal;text-align:center;line-height:125%;writing-mode:lr-tb;text-anchor:middle;font-family:Serif;-inkscape-font-specification:Serif">Vertex Shaders</tspan></tspan></text><text style="font-size:20px;font-style:normal;font-variant:normal;font-weight:400;font-stretch:normal;text-align:end;line-height:125%;writing-mode:lr-tb;text-anchor:end;fill:#000;fill-opacity:1;stroke:none;font-family:Serif;-inkscape-font-specification:Serif" id="text3036" x="211" y="125.344" xml:space="preserve"><tspan id="tspan3038" x="211" y="125.344"><tspan id="tspan3040" x="211" y="125.344" style="font-size:20px;font-style:normal;font-variant:normal;font-weight:400;font-stretch:normal;text-align:end;line-height:125%;writing-mode:lr-tb;text-anchor:end;font-family:Serif;-inkscape-font-specification:Serif">gl_Position</tspan></tspan></text><use id="use3044" width="700" height="375" x="0" y="0" transform="translate(0,101.5)" xlink:href="#text3036"/><use id="use3046" width="700" height="375" x="0" y="0" transform="translate(0,198.5)" xlink:href="#text3036"/><text style="font-size:20px;font-style:normal;font-variant:normal;font-weight:400;font-stretch:normal;text-align:center;line-height:125%;writing-mode:lr-tb;text-anchor:middle;fill:#000;fill-opacity:1;stroke:none;font-family:Serif;-inkscape-font-specification:Serif" id="text3915" x="341.859" y="56" xml:space="preserve"><tspan id="tspan3917" x="341.859" y="56"><tspan id="tspan3919" x="341.859" y="56">Divide by W</tspan></tspan></text><text style="font-size:20px;font-style:normal;font-variant:normal;font-weight:400;font-stretch:normal;text-align:center;line-height:125%;writing-mode:lr-tb;text-anchor:middle;fill:#000;fill-opacity:1;stroke:none;font-family:Serif;-inkscape-font-specification:Serif" id="text3909" x="476" y="30.344" xml:space="preserve"><tspan id="tspan3911" x="476" y="30.344"><tspan id="tspan3913" x="476" y="30.344">Viewport</tspan></tspan></text><text style="font-size:20px;font-style:normal;font-variant:normal;font-weight:400;font-stretch:normal;text-align:center;line-height:125%;writing-mode:lr-tb;text-anchor:middle;fill:#000;fill-opacity:1;stroke:none;font-family:Serif;-inkscape-font-specification:Serif" id="text3903" x="476" y="56" xml:space="preserve"><tspan id="tspan3905" x="476" y="56"><tspan id="tspan3907" x="476" y="56">Transform</tspan></tspan></text><text style="font-size:20px;font-style:normal;font-variant:normal;font-weight:400;font-stretch:normal;text-align:center;line-height:125%;writing-mode:lr-tb;text-anchor:middle;fill:#000;fill-opacity:1;stroke:none;font-family:Serif;-inkscape-font-specification:Serif" id="text3086" x="619" y="56" xml:space="preserve"><tspan id="tspan3088" x="619" y="56">Rasterizer</tspan></text><path style="fill:none;stroke:red;stroke-width:1px;stroke-linecap:butt;stroke-linejoin:miter;stroke-opacity:1" id="path3866" d="M 215.5,120.5 C 245,113 242,106 250.5,94.5 258.52428,83.643622 265,72 299.5,72 334,72 472,72 472,72 l 84.25,0 c 14.2522,0 58.59552,13.478853 78.51614,49.65218 19.92063,36.17334 15.41855,95.04117 15.41855,103.79474"/><path style="fill:none;stroke:red;stroke-width:1px;stroke-linecap:butt;stroke-linejoin:miter;stroke-opacity:1" id="path3870" d="m 215.5,223 c 10.5,0.25 13.5,0.3125 16.4375,-10.625 4.22456,-17.80425 4.14317,-66.99545 17.13483,-84.29657 C 269.33332,101.58329 291.49609,98.25 299.5,98.25 L 556.25,96.5 c 32.5,0 69.89306,57.20507 69.89306,70.96416"/><path style="fill:none;stroke:red;stroke-width:1px;stroke-linecap:butt;stroke-linejoin:miter;stroke-opacity:1" id="path3880" d="m 215.5,320.90633 c 41.07173,0 37.20211,-19.16428 37.20211,-52.2362 0,-33.07192 9.46121,-85.2332 16.37888,-114.57448 6.50047,-27.57172 17.16984,-32.97002 30.41901,-32.97002 13.24917,0 234.58665,0 256.75,0 11.08168,0 30.88796,24.75849 28.23176,46.33853 -2.70966,22.01445 -9.60395,40.30509 -9.60395,46.66905"/><path style="fill:none;stroke:#000;stroke-width:2;stroke-linecap:butt;stroke-linejoin:miter;stroke-opacity:1;stroke-miterlimit:10;stroke-dasharray:none" id="path3888" d="m 626.14306,167.46416 24.04163,57.98276 -75.30688,-11.31371 z"/><path style="fill:#000;fill-opacity:1;stroke:none" id="path3897" d="m 632.62131,167.46416 a 6.4782476,6.4782476 0 1 1 -12.95649,0 6.4782476,6.4782476 0 1 1 12.95649,0 z"/><use id="use3899" width="700" height="375" x="0" y="0" transform="translate(-51.25,46.669053)" xlink:href="#path3897"/><use id="use3901" width="700" height="375" x="0" y="0" transform="translate(75.3125,11.31371)" xlink:href="#use3899"/></g></svg>