<svg xmlns="http://www.w3.org/2000/svg" xmlns:xlink="http://www.w3.org/1999/xlink" width="800" height="300" version="1.1"><style type="text/css">.black{stroke-width:1px;stroke:#000}.trans_wide_black{stroke-opacity:.4;stroke:#000;stroke-width:3px}.fill_blue{fill:#00f}.fill_none{fill:none}.fill_black{fill:#000}.no_stroke{stroke:none}</style><defs><marker id="point" markerHeight="12.5" markerUnits="userSpaceOnUse" markerWidth="12.5" orient="auto" refX="6.25" refY="6.25"><circle cx="6.25" cy="6.25" r="6.25" class="black fill_black"/></marker><g id="g_triangle"><polygon points="95 50 160 190 50 260"/></g><g id="g_grid"><path d="M 12.5 0 V 300 M 37.5 0 V 300 M 62.5 0 V 300 M 87.5 0 V 300 M 112.5 0 V 300 M 137.5 0 V 300 M 162.5 0 V 300 M 187.5 0 V 300 M 0 12.5 H 200 M 0 37.5 H 200 M 0 62.5 H 200 M 0 87.5 H 200 M 0 112.5 H 200 M 0 137.5 H 200 M 0 162.5 H 200 M 0 187.5 H 200 M 0 212.5 H 200 M 0 237.5 H 200 M 0 262.5 H 200 M 0 287.5 H 200"/></g><g id="g_gridCenters"><circle cx="25" cy="25" r="3.571"/><circle cx="25" cy="50" r="3.571"/><circle cx="25" cy="75" r="3.571"/><circle cx="25" cy="100" r="3.571"/><circle cx="25" cy="125" r="3.571"/><circle cx="25" cy="150" r="3.571"/><circle cx="25" cy="175" r="3.571"/><circle cx="25" cy="200" r="3.571"/><circle cx="25" cy="225" r="3.571"/><circle cx="25" cy="250" r="3.571"/><circle cx="25" cy="275" r="3.571"/><circle cx="50" cy="25" r="3.571"/><circle cx="50" cy="50" r="3.571"/><circle cx="50" cy="75" r="3.571"/><circle cx="50" cy="100" r="3.571"/><circle cx="50" cy="125" r="3.571"/><circle cx="50" cy="150" r="3.571"/><circle cx="50" cy="175" r="3.571"/><circle cx="50" cy="200" r="3.571"/><circle cx="50" cy="225" r="3.571"/><circle cx="50" cy="250" r="3.571"/><circle cx="50" cy="275" r="3.571"/><circle cx="75" cy="25" r="3.571"/><circle cx="75" cy="50" r="3.571"/><circle cx="75" cy="75" r="3.571"/><circle cx="75" cy="100" r="3.571"/><circle cx="75" cy="125" r="3.571"/><circle cx="75" cy="150" r="3.571"/><circle cx="75" cy="175" r="3.571"/><circle cx="75" cy="200" r="3.571"/><circle cx="75" cy="225" r="3.571"/><circle cx="75" cy="250" r="3.571"/><circle cx="75" cy="275" r="3.571"/><circle cx="100" cy="25" r="3.571"/><circle cx="100" cy="50" r="3.571"/><circle cx="100" cy="75" r="3.571"/><circle cx="100" cy="100" r="3.571"/><circle cx="100" cy="125" r="3.571"/><circle cx="100" cy="150" r="3.571"/><circle cx="100" cy="175" r="3.571"/><circle cx="100" cy="200" r="3.571"/><circle cx="100" cy="225" r="3.571"/><circle cx="100" cy="250" r="3.571"/><circle cx="100" cy="275" r="3.571"/><circle cx="125" cy="25" r="3.571"/><circle cx="125" cy="50" r="3.571"/><circle cx="125" cy="75" r="3.571"/><circle cx="125" cy="100" r="3.571"/><circle cx="125" cy="125" r="3.571"/><circle cx="125" cy="150" r="3.571"/><circle cx="125" cy="175" r="3.571"/><circle cx="125" cy="200" r="3.571"/><circle cx="125" cy="225" r="3.571"/><circle cx="125" cy="250" r="3.571"/><circle cx="125" cy="275" r="3.571"/><circle cx="150" cy="25" r="3.571"/><circle cx="150" cy="50" r="3.571"/><circle cx="150" cy="75" r="3.571"/><circle cx="150" cy="100" r="3.571"/><circle cx="150" cy="125" r="3.571"/><circle cx="150" cy="150" r="3.571"/><circle cx="150" cy="175" r="3.571"/><circle cx="150" cy="200" r="3.571"/><circle cx="150" cy="225" r="3.571"/><circle cx="150" cy="250" r="3.571"/><circle cx="150" cy="275" r="3.571"/><circle cx="175" cy="25" r="3.571"/><circle cx="175" cy="50" r="3.571"/><circle cx="175" cy="75" r="3.571"/><circle cx="175" cy="100" r="3.571"/><circle cx="175" cy="125" r="3.571"/><circle cx="175" cy="150" r="3.571"/><circle cx="175" cy="175" r="3.571"/><circle cx="175" cy="200" r="3.571"/><circle cx="175" cy="225" r="3.571"/><circle cx="175" cy="250" r="3.571"/><circle cx="175" cy="275" r="3.571"/></g><g id="g_scanConvert"><rect width="25" height="25" x="62.5" y="137.5"/><rect width="25" height="25" x="62.5" y="162.5"/><rect width="25" height="25" x="62.5" y="187.5"/><rect width="25" height="25" x="62.5" y="212.5"/><rect width="25" height="25" x="87.5" y="62.5"/><rect width="25" height="25" x="87.5" y="87.5"/><rect width="25" height="25" x="87.5" y="112.5"/><rect width="25" height="25" x="87.5" y="137.5"/><rect width="25" height="25" x="87.5" y="162.5"/><rect width="25" height="25" x="87.5" y="187.5"/><rect width="25" height="25" x="87.5" y="212.5"/><rect width="25" height="25" x="112.5" y="112.5"/><rect width="25" height="25" x="112.5" y="137.5"/><rect width="25" height="25" x="112.5" y="162.5"/><rect width="25" height="25" x="112.5" y="187.5"/><rect width="25" height="25" x="137.5" y="162.5"/></g></defs><use width="200" height="300" x="0" y="0" class="black fill_none" xlink:href="#g_triangle"/><use width="200" height="300" x="300" y="0" class="black fill_none" xlink:href="#g_grid"/><use width="200" height="300" x="300" y="0" class="black fill_none" xlink:href="#g_gridCenters"/><use width="200" height="300" x="300" y="0" class="trans_wide_black fill_none" xlink:href="#g_triangle"/><use width="200" height="300" x="600" y="0" class="no_stroke fill_blue" xlink:href="#g_scanConvert"/><use width="200" height="300" x="600" y="0" class="black fill_none" xlink:href="#g_grid"/><use width="200" height="300" x="600" y="0" class="trans_wide_black fill_none" xlink:href="#g_triangle"/></svg>