<svg xmlns="http://www.w3.org/2000/svg" xmlns:xlink="http://www.w3.org/1999/xlink" width="400" height="400" version="1.1"><style type="text/css">.grid{stroke:#888;stroke-width:1.5px;fill:none}.sample_box{stroke-opacity:.7;stroke-width:7px;stroke-linejoin:round;stroke:red;fill:none}.sample_pt{fill:#daa520;stroke:none}.color_0,.color_1{fill:#000;stroke:none}.color_1{fill:#fff}</style><rect width="100" height="100" x="0" y="0" class="color_0"/><rect width="100" height="100" x="100" y="0" class="color_0"/><rect width="100" height="100" x="200" y="0" class="color_1"/><rect width="100" height="100" x="300" y="0" class="color_1"/><rect width="100" height="100" x="0" y="100" class="color_0"/><rect width="100" height="100" x="100" y="100" class="color_0"/><rect width="100" height="100" x="200" y="100" class="color_1"/><rect width="100" height="100" x="300" y="100" class="color_1"/><rect width="100" height="100" x="0" y="200" class="color_1"/><rect width="100" height="100" x="100" y="200" class="color_1"/><rect width="100" height="100" x="200" y="200" class="color_0"/><rect width="100" height="100" x="300" y="200" class="color_0"/><rect width="100" height="100" x="0" y="300" class="color_1"/><rect width="100" height="100" x="100" y="300" class="color_1"/><rect width="100" height="100" x="200" y="300" class="color_0"/><rect width="100" height="100" x="300" y="300" class="color_0"/><path d="M 0 100 h 400 M 0 200 h 400 M 0 300 h 400 M 100 0 v 400 M 200 0 v 400 M 300 0 v 400" class="grid"/><path d="M 135 265 L 135 185 L 215 185 L 215 265 Z" class="sample_box"/><circle cx="175" cy="225" r="5" class="sample_pt"/></svg>