<svg xmlns="http://www.w3.org/2000/svg" xmlns:xlink="http://www.w3.org/1999/xlink" width="900" height="450" version="1.1"><style type="text/css">.axis_label{font-size:30px;stroke:none;font-family:monospace;fill:#000}.fill_black{fill:#000}.fill_frustum{fill:#e0e0e0}.arrow_ended{marker-end:url(#arrow)}.middle_lines{stroke:maroon;stroke-width:2px;fill:none}.object_lines{stroke:#00c000;stroke-width:1px;fill:none}.radial_eye{stroke-dasharray:3,3;stroke:#000}.line_label{font-family:monospace;font-size:16pt;stroke:none;text-anchor:start;fill:#000}.stroke_none{stroke:none}.image_label{font-family:serif;font-size:40px;stroke:none;text-anchor:middle;fill:#000}.middle_circles{stroke:#000;stroke-width:.5px;fill:maroon}.black{stroke-width:1px;stroke:#000}.object_circles{stroke:#000;stroke-width:.5px;fill:#00c000}</style><defs><marker id="point" markerHeight="10" markerUnits="userSpaceOnUse" markerWidth="10" orient="auto" refX="5" refY="5"><circle cx="5" cy="5" r="5" class="fill_black black"/></marker><marker id="arrow" markerHeight="12" markerUnits="userSpaceOnUse" markerWidth="16" orient="auto" refX="16" refY="6"><path d="M 16 6 L 0 0 L 0 12 Z" class="fill_black black"/></marker></defs><path d="M 100 250 L 300 250 L 400 150 L 400 50 L 0 50 L 0 150 Z" class="stroke_none fill_frustum"/><rect width="200" height="200" x="600" y="100" class="stroke_none fill_frustum"/><line x1="200" x2="400" y1="350" y2="150" class="radial_eye"/><line x1="200" x2="0" y1="350" y2="150" class="radial_eye"/><line x1="200" x2="200" y1="350" y2="0" class="black arrow_ended"/><line x1="200" x2="200" y1="350" y2="400" class="black arrow_ended"/><line x1="200" x2="0" y1="350" y2="350" class="black arrow_ended"/><line x1="200" x2="400" y1="350" y2="350" class="black arrow_ended"/><line x1="208" x2="192" y1="50" y2="50" class="black"/><line x1="212" x2="188" y1="100" y2="100" class="black"/><line x1="208" x2="192" y1="150" y2="150" class="black"/><line x1="212" x2="188" y1="200" y2="200" class="black"/><line x1="208" x2="192" y1="250" y2="250" class="black"/><line x1="212" x2="188" y1="300" y2="300" class="black"/><line x1="208" x2="192" y1="350" y2="350" class="black"/><line x1="50" x2="50" y1="358" y2="342" class="black"/><line x1="100" x2="100" y1="362" y2="338" class="black"/><line x1="150" x2="150" y1="358" y2="342" class="black"/><line x1="200" x2="200" y1="362" y2="338" class="black"/><line x1="250" x2="250" y1="358" y2="342" class="black"/><line x1="300" x2="300" y1="362" y2="338" class="black"/><line x1="350" x2="350" y1="358" y2="342" class="black"/><line x1="700" x2="700" y1="200" y2="400" class="black arrow_ended"/><line x1="700" x2="700" y1="200" y2="0" class="black arrow_ended"/><line x1="700" x2="500" y1="200" y2="200" class="black arrow_ended"/><line x1="700" x2="900" y1="200" y2="200" class="black arrow_ended"/><line x1="708" x2="692" y1="350" y2="350" class="black"/><line x1="712" x2="688" y1="300" y2="300" class="black"/><line x1="708" x2="692" y1="250" y2="250" class="black"/><line x1="712" x2="688" y1="200" y2="200" class="black"/><line x1="708" x2="692" y1="150" y2="150" class="black"/><line x1="712" x2="688" y1="100" y2="100" class="black"/><line x1="708" x2="692" y1="50" y2="50" class="black"/><line x1="550" x2="550" y1="192" y2="208" class="black"/><line x1="600" x2="600" y1="188" y2="212" class="black"/><line x1="650" x2="650" y1="192" y2="208" class="black"/><line x1="700" x2="700" y1="188" y2="212" class="black"/><line x1="750" x2="750" y1="192" y2="208" class="black"/><line x1="800" x2="800" y1="188" y2="212" class="black"/><line x1="850" x2="850" y1="192" y2="208" class="black"/><path d="M 350 175 L 350 250 L 250 250 L 250 175 M 350 100 L 350 175 L 250 175 L 250 100 Z" class="object_lines"/><path d="M 785.71428571429 171.42857142857 L 850 300 L 750 300 L 728.57142857143 171.42857142857 M 760 120 L 785.71428571429 171.42857142857 L 728.57142857143 171.42857142857 L 720 120 Z" class="object_lines"/><circle cx="350" cy="250" r="5" class="object_circles"/><circle cx="850" cy="300" r="5" class="object_circles"/><circle cx="250" cy="250" r="5" class="object_circles"/><circle cx="750" cy="300" r="5" class="object_circles"/><circle cx="350" cy="175" r="5" class="object_circles"/><circle cx="785.714" cy="171.429" r="5" class="object_circles"/><circle cx="250" cy="175" r="5" class="object_circles"/><circle cx="728.571" cy="171.429" r="5" class="object_circles"/><circle cx="350" cy="100" r="5" class="object_circles"/><circle cx="760" cy="120" r="5" class="object_circles"/><circle cx="250" cy="100" r="5" class="object_circles"/><circle cx="720" cy="120" r="5" class="object_circles"/><line x1="350" x2="250" y1="207.143" y2="207.143" class="middle_lines"/><line x1="805" x2="735" y1="210" y2="210" class="middle_lines"/><circle cx="350" cy="207.143" r="5" class="middle_circles"/><circle cx="250" cy="207.143" r="5" class="middle_circles"/><circle cx="805" cy="210" r="5" class="middle_circles"/><circle cx="735" cy="210" r="5" class="middle_circles"/><text x="355" y="340" class="axis_label">+X</text><text x="150" y="30" class="axis_label">-Z</text><text x="855" y="190" class="axis_label">+X</text><text x="650" y="30" class="axis_label">+Z</text><text x="358" y="254" class="line_label">A</text><text x="858" y="304" class="line_label">A</text><text x="358" y="179" class="line_label">C</text><text x="793.714" y="175.429" class="line_label">C</text><text x="358" y="104" class="line_label">B</text><text x="768" y="124" class="line_label">B</text><text x="814" y="220" class="line_label">D</text><text x="358" y="213.143" class="line_label">D</text><text x="200" y="440" class="image_label">Camera Space</text><text x="700" y="440" class="image_label">Norm. Device Coord.</text></svg>