<svg xmlns="http://www.w3.org/2000/svg" xmlns:xlink="http://www.w3.org/1999/xlink" width="500" height="300" version="1.1"><style type="text/css">.arrowhead{fill:#add8e6;stroke:#add8e6}.ray{marker-end:url(#arrow);stroke:#add8e6;stroke-dasharray:3,3;stroke-width:1px}.light{fill:#ff0;stroke:none}.incident-ray{marker-end:url(#arrow);stroke:#add8e6;stroke-width:2px}.surface{fill:#add8e6;stroke:none}</style><defs><marker id="arrow" markerHeight="8" markerUnits="userSpaceOnUse" markerWidth="10" orient="auto" refX="10" refY="4"><path d="M 10 4 L 0 0 L 0 8 Z" class="arrowhead"/></marker></defs><line x1="40" x2="250" y1="60" y2="240" class="incident-ray"/><line x1="250" x2="163.067" y1="240" y2="216.706" class="ray"/><line x1="250" x2="172.058" y1="240" y2="195" class="ray"/><line x1="250" x2="186.36" y1="240" y2="176.36" class="ray"/><line x1="250" x2="205" y1="240" y2="162.058" class="ray"/><line x1="250" x2="226.706" y1="240" y2="153.067" class="ray"/><line x1="250" x2="250" y1="240" y2="150" class="ray"/><line x1="250" x2="273.294" y1="240" y2="153.067" class="ray"/><line x1="250" x2="295" y1="240" y2="162.058" class="ray"/><line x1="250" x2="313.64" y1="240" y2="176.36" class="ray"/><line x1="250" x2="327.942" y1="240" y2="195" class="ray"/><line x1="250" x2="336.933" y1="240" y2="216.706" class="ray"/><rect width="500" height="90" x="0" y="240" class="surface"/><circle cx="40" cy="60" r="20" class="light"/></svg>